<?xml version="1.0" standalone="no"?>
<!DOCTYPE svg PUBLIC "-//W3C//DTD SVG 20010904//EN"
 "http://www.w3.org/TR/2001/REC-SVG-20010904/DTD/svg10.dtd">
<svg version="1.0" xmlns="http://www.w3.org/2000/svg"
 width="103.000000pt" height="103.000000pt" viewBox="0 0 103.000000 103.000000"
 preserveAspectRatio="xMidYMid meet">
<metadata>
Created by potrace 1.11, written by Peter Selinger 2001-2013
</metadata>
<g transform="translate(0.000000,103.000000) scale(0.100000,-0.100000)"
fill="#000000" stroke="none">
<path d="M470 1017 c0 -5 -9 -7 -20 -4 -11 3 -20 2 -20 -2 0 -4 -25 -13 -55
-20 -30 -7 -57 -16 -60 -21 -3 -5 -11 -7 -18 -4 -22 8 -87 -25 -96 -49 -9 -25
-3 -50 10 -41 5 3 9 -1 9 -8 1 -9 4 -8 13 3 7 9 20 15 30 13 9 -1 17 3 17 9 0
7 5 5 10 -3 7 -11 10 -11 10 -2 0 7 4 11 9 7 5 -3 12 -1 15 4 4 5 17 8 31 6
14 -1 25 1 25 5 0 5 18 11 40 15 22 4 40 11 40 16 0 5 5 9 11 9 5 0 7 -6 3
-12 -6 -10 -4 -10 7 -2 8 6 28 10 44 8 17 -2 38 -4 48 -5 9 0 17 -4 17 -7 0
-4 8 -9 18 -10 31 -3 47 -7 60 -15 6 -5 16 -6 21 -2 5 3 13 0 16 -6 4 -5 13
-8 21 -5 7 3 16 0 20 -5 3 -6 14 -9 24 -6 11 3 21 -2 25 -12 6 -15 8 -15 19 1
7 10 15 16 17 13 3 -2 5 4 5 15 0 10 -4 16 -8 14 -4 -3 -8 2 -8 10 0 9 -11 18
-25 22 -14 3 -25 9 -25 13 0 4 -8 7 -17 8 -41 3 -63 8 -63 13 0 4 -6 7 -12 8
-7 1 -28 4 -46 6 -18 2 -39 9 -46 15 -7 6 -16 8 -19 4 -4 -3 -13 -1 -21 6 -16
13 -76 11 -76 -2z"/>
<path d="M392 802 c-46 -36 -29 -122 24 -122 8 0 13 -4 10 -8 -3 -5 1 -9 9 -9
8 0 15 5 15 10 0 6 3 7 7 4 3 -4 17 3 30 15 65 61 -24 165 -95 110z"/>
<path d="M360 628 c-11 -12 -17 -25 -14 -30 3 -4 1 -8 -4 -8 -5 0 -9 -7 -9
-15 0 -8 3 -15 7 -15 5 0 8 -26 11 -107 1 -18 5 -33 9 -33 3 0 7 -15 8 -32 0
-35 6 -61 18 -92 6 -15 4 -17 -7 -11 -11 6 -11 5 -2 -5 8 -9 53 -12 160 -12
81 -1 153 -2 158 -5 6 -2 11 -13 12 -24 1 -12 8 -29 16 -38 7 -9 12 -26 11
-38 0 -12 5 -24 13 -27 8 -3 12 -10 9 -15 -6 -9 21 -69 38 -86 6 -5 21 -11 33
-13 17 -2 24 3 29 24 5 18 3 29 -4 32 -7 2 -10 7 -8 11 2 3 -6 28 -18 53 -13
26 -18 44 -12 40 6 -3 4 5 -5 18 -9 14 -22 46 -30 73 -7 26 -17 47 -22 47 -5
0 -6 7 -3 16 7 18 -55 49 -65 33 -7 -12 -31 -8 -41 6 -5 7 -8 7 -8 0 0 -13
-107 -12 -119 1 -6 5 -11 23 -13 39 -3 30 -2 30 45 30 26 0 47 4 47 8 0 5 5 5
10 2 13 -8 37 16 42 41 3 17 -5 19 -79 22 -86 3 -90 5 -84 50 1 6 -3 12 -9 12
-6 0 -9 4 -6 9 10 16 -28 50 -62 55 -24 3 -38 -1 -52 -16z"/>
<path d="M251 452 c-28 -27 -56 -63 -62 -80 -7 -20 -15 -29 -22 -25 -7 4 -5
-2 3 -12 10 -12 11 -16 2 -11 -10 6 -13 -8 -11 -68 1 -42 6 -76 10 -76 5 0 8
-3 7 -7 -6 -28 93 -149 113 -138 4 3 10 -2 13 -11 3 -8 10 -12 16 -9 5 3 10 2
10 -3 0 -5 38 -10 85 -11 64 -2 85 1 85 11 0 9 3 9 10 -2 6 -10 10 -11 10 -2
0 6 6 12 13 12 7 0 34 18 61 40 26 22 45 40 41 40 -3 0 2 12 13 27 11 16 20
31 21 35 1 4 4 14 7 23 9 23 0 38 -25 42 -12 2 -20 -1 -17 -6 3 -5 -1 -12 -9
-15 -8 -3 -15 -9 -14 -13 4 -23 -5 -38 -51 -83 -34 -33 -56 -48 -70 -45 -11 2
-20 0 -20 -5 0 -8 -71 -6 -110 3 -38 8 -102 55 -94 69 3 4 -2 8 -10 8 -9 0
-15 3 -14 7 1 5 -5 22 -12 38 -15 36 -20 104 -8 111 4 3 6 9 3 14 -3 5 -1 11
5 15 6 4 8 11 5 16 -4 5 -1 9 5 9 6 0 9 4 6 9 -4 5 7 20 23 34 17 14 27 28 24
31 -4 3 1 6 11 6 9 0 14 5 11 10 -3 6 -1 10 5 10 7 0 5 7 -4 16 -9 8 -14 20
-11 25 13 20 -6 7 -54 -39z"/>
</g>
</svg>
